<svg width="83" height="82" viewBox="0 0 83 82" fill="none" xmlns="http://www.w3.org/2000/svg">
<path d="M31.485 17.5207H38.3183C42.0903 17.5207 46.7165 20.1481 48.6503 23.3905L57.1066 37.5834H72.4816C73.3877 37.5834 74.2568 37.9433 74.8975 38.5841C75.5383 39.2248 75.8983 40.0939 75.8983 41C75.8983 41.9062 75.5383 42.7752 74.8975 43.416C74.2568 44.0567 73.3877 44.4167 72.4816 44.4167H56.782L48.3223 58.6095C46.3919 61.8554 41.7658 64.4794 37.9903 64.4794H31.157L43.1153 44.4167H19.2328L14.3333 52.7978H7.5L14.4017 41V40.8873L7.56833 29.2023H14.4017L19.3012 37.5834H43.4399L31.485 17.5207Z" fill="black"/>
</svg>
