<svg width="23" height="23" viewBox="0 0 23 23" fill="none" xmlns="http://www.w3.org/2000/svg">
<path d="M8.23599 12.947L14.7814 16.7612M14.7718 6.23871L8.23599 10.0529M20.1289 4.79163C20.1289 6.37944 18.8417 7.66663 17.2539 7.66663C15.6661 7.66663 14.3789 6.37944 14.3789 4.79163C14.3789 3.20381 15.6661 1.91663 17.2539 1.91663C18.8417 1.91663 20.1289 3.20381 20.1289 4.79163ZM8.62891 11.5C8.62891 13.0878 7.34172 14.375 5.75391 14.375C4.16609 14.375 2.87891 13.0878 2.87891 11.5C2.87891 9.91214 4.16609 8.62496 5.75391 8.62496C7.34172 8.62496 8.62891 9.91214 8.62891 11.5ZM20.1289 18.2083C20.1289 19.7961 18.8417 21.0833 17.2539 21.0833C15.6661 21.0833 14.3789 19.7961 14.3789 18.2083C14.3789 16.6205 15.6661 15.3333 17.2539 15.3333C18.8417 15.3333 20.1289 16.6205 20.1289 18.2083Z" stroke="#6F4BE5" stroke-width="1.5" stroke-linecap="round" stroke-linejoin="round"/>
</svg>
