<svg width="23" height="23" viewBox="0 0 23 23" fill="none" xmlns="http://www.w3.org/2000/svg">
<path d="M12.4583 19.1667V17.25C12.4583 14.6037 10.313 12.4584 7.66667 12.4584C5.0203 12.4584 2.875 14.6037 2.875 17.25V19.1667H12.4583ZM12.4583 19.1667H20.125V18.2084C20.125 15.3856 17.9797 13.4167 15.3333 13.4167C13.9789 13.4167 12.7557 14.0161 11.8842 14.9798M10.5417 6.70837C10.5417 8.29619 9.25449 9.58337 7.66667 9.58337C6.07885 9.58337 4.79167 8.29619 4.79167 6.70837C4.79167 5.12056 6.07885 3.83337 7.66667 3.83337C9.25449 3.83337 10.5417 5.12056 10.5417 6.70837ZM17.25 8.62504C17.25 9.68359 16.3919 10.5417 15.3333 10.5417C14.2748 10.5417 13.4167 9.68359 13.4167 8.62504C13.4167 7.56649 14.2748 6.70837 15.3333 6.70837C16.3919 6.70837 17.25 7.56649 17.25 8.62504Z" stroke="#12B74A" stroke-width="1.5" stroke-linecap="round" stroke-linejoin="round"/>
</svg>
